<?xml version="1.0" standalone="no"?>
<!DOCTYPE svg PUBLIC "-//W3C//DTD SVG 20010904//EN"
 "http://www.w3.org/TR/2001/REC-SVG-20010904/DTD/svg10.dtd">
<svg version="1.0" xmlns="http://www.w3.org/2000/svg"
 width="200.000000pt" height="200.000000pt" viewBox="0 0 200.000000 200.000000"
 preserveAspectRatio="xMidYMid meet">
<metadata>
Created by potrace 1.14, written by Peter Selinger 2001-2017
</metadata>
<g transform="translate(0.000000,200.000000) scale(0.100000,-0.100000)"
fill="#000000" stroke="none">
<path d="M810 1985 c-346 -72 -622 -312 -766 -665 l-39 -95 0 -180 c0 -157 3
-191 23 -265 108 -398 403 -685 785 -766 88 -18 286 -18 374 0 380 80 676 367
784 761 16 61 23 118 26 240 6 197 -8 272 -72 402 -135 273 -375 474 -660 554
-101 28 -353 36 -455 14z m580 -440 c189 -31 250 -59 282 -132 19 -44 20 -60
15 -223 -3 -96 -13 -211 -21 -255 -40 -211 -53 -222 -294 -241 -92 -7 -244
-13 -339 -14 l-171 0 -39 -48 c-55 -66 -95 -127 -132 -199 -17 -34 -40 -67
-50 -73 -30 -16 -66 -12 -85 9 -16 18 -17 35 -11 174 l8 154 -82 11 c-148 21
-151 27 -152 300 -1 274 17 369 76 408 44 28 343 102 525 129 122 18 356 18
470 0z"/>
<path d="M970 1494 c-174 -22 -459 -88 -530 -122 -55 -27 -63 -67 -64 -340 -1
-212 1 -235 17 -246 9 -8 59 -19 109 -25 51 -7 94 -14 96 -16 3 -2 4 -79 3
-170 -1 -91 2 -165 6 -165 4 0 24 30 43 68 36 70 131 201 172 238 22 21 36 22
308 28 338 7 390 13 425 46 44 42 69 162 81 396 4 72 4 147 0 166 -14 78 -96
116 -303 143 -135 18 -220 18 -363 -1z m-191 -286 c26 -27 36 -78 24 -114 -19
-56 -99 -87 -139 -53 -26 21 -46 77 -39 109 16 72 109 107 154 58z m272 12
c25 -14 49 -62 49 -100 0 -46 -47 -90 -96 -90 -55 0 -84 31 -84 88 0 37 6 50
34 78 35 35 63 42 97 24z m308 -15 c38 -19 54 -66 41 -116 -13 -46 -42 -69
-90 -69 -46 0 -76 21 -90 65 -31 95 51 166 139 120z"/>
<path d="M696 1164 c-21 -20 -20 -58 0 -75 33 -28 74 32 48 70 -18 25 -27 26
-48 5z"/>
<path d="M986 1148 c-21 -29 -20 -45 2 -56 22 -12 40 -5 53 20 8 15 7 24 -7
39 -22 24 -29 24 -48 -3z"/>
<path d="M1281 1151 c-37 -37 5 -95 50 -71 15 8 19 19 17 42 -4 41 -40 56 -67
29z"/>
</g>
</svg>
